<?xml version="1.0" encoding="UTF-8"?>
<svg width="44px" height="44px" viewBox="0 0 44 44" version="1.1" xmlns="http://www.w3.org/2000/svg" xmlns:xlink="http://www.w3.org/1999/xlink">
    <title>Icon44/我的钱包@2x</title>
    <g id="Icon44/我的钱包" stroke="none" stroke-width="1" fill="none" fill-rule="evenodd">
        <g id="我的钱包" fill="#666666" fill-rule="nonzero">
            <path d="M34,6 C38.418278,6 42,9.581722 42,14 L42.0011092,16.5357707 C43.1961002,17.2275472 44,18.5198932 44,20 L44,24 C44,25.4801068 43.1961002,26.7724528 42.0011092,27.4642293 L42,30 C42,34.418278 38.418278,38 34,38 L10,38 C5.581722,38 2,34.418278 2,30 L2,14 C2,9.581722 5.581722,6 10,6 L34,6 Z M34,8 L10,8 C6.76160306,8 4.12242824,10.5655749 4.00413847,13.7750617 L4,14 L4,30 C4,33.2383969 6.56557489,35.8775718 9.77506174,35.9958615 L10,36 L34,36 C37.2383969,36 39.8775718,33.4344251 39.9958615,30.2249383 L40,30 L40,28 L40,28 L34,28 C30.6862915,28 28,25.3137085 28,22 C28,18.6862915 30.6862915,16 34,16 L40,16 L40,14 C40,10.7616031 37.4344251,8.12242824 34.2249383,8.00413847 L34,8 Z M40,18 L34,18 C31.790861,18 30,19.790861 30,22 C30,24.1421954 31.6839685,25.8910789 33.8003597,25.9951047 L34,26 L40,26 C41.0543618,26 41.9181651,25.1841222 41.9945143,24.1492623 L42,24 L42,20 C42,18.9456382 41.1841222,18.0818349 40.1492623,18.0054857 L40,18 Z M36,21 C36.5522847,21 37,21.4477153 37,22 C37,22.5522847 36.5522847,23 36,23 L35,23 C34.4477153,23 34,22.5522847 34,22 C34,21.4477153 34.4477153,21 35,21 L36,21 Z" id="形状结合"></path>
        </g>
    </g>
</svg>