<?xml version="1.0" encoding="UTF-8"?>
<svg width="44px" height="44px" viewBox="0 0 44 44" version="1.1" xmlns="http://www.w3.org/2000/svg" xmlns:xlink="http://www.w3.org/1999/xlink">
    <title>Icon44/对账单@2x</title>
    <g id="Icon44/对账单" stroke="none" stroke-width="1" fill="none" fill-rule="evenodd">
        <g id="对账单" fill="#666666" fill-rule="nonzero">
            <path d="M34,4 C36.209139,4 38,5.790861 38,8 L38,32 C38,36.418278 34.418278,40 30,40 L14,40 C9.581722,40 6,36.418278 6,32 L6,8 C6,5.790861 7.790861,4 10,4 L34,4 Z M34,6 L10,6 C8.9456382,6 8.08183488,6.81587779 8.00548574,7.85073766 L8,8 L8,32 C8,35.2383969 10.5655749,37.8775718 13.7750617,37.9958615 L14,38 L30,38 C33.2383969,38 35.8775718,35.4344251 35.9958615,32.2249383 L36,32 L36,8 C36,6.9456382 35.1841222,6.08183488 34.1492623,6.00548574 L34,6 Z M26.5547002,13.1679497 C26.9814054,13.4524198 27.1189526,14.0080806 26.8911422,14.4539337 L26.8320503,14.5547002 L23.868,19 L26,19 C26.5522847,19 27,19.4477153 27,20 C27,20.5128358 26.6139598,20.9355072 26.1166211,20.9932723 L26,21 L23,21 L23,23 L26,23 C26.5522847,23 27,23.4477153 27,24 C27,24.5128358 26.6139598,24.9355072 26.1166211,24.9932723 L26,25 L23,25 L23,28 C23,28.5522847 22.5522847,29 22,29 C21.4871642,29 21.0644928,28.6139598 21.0067277,28.1166211 L21,28 L21,25 L18,25 C17.4477153,25 17,24.5522847 17,24 C17,23.4871642 17.3860402,23.0644928 17.8833789,23.0067277 L18,23 L21,23 L21,21 L18,21 C17.4477153,21 17,20.5522847 17,20 C17,19.4871642 17.3860402,19.0644928 17.8833789,19.0067277 L18,19 L20.131,19 L17.1679497,14.5547002 C16.8615972,14.0951715 16.9857711,13.4743022 17.4452998,13.1679497 C17.872005,12.8834796 18.4378254,12.9702286 18.7617627,13.351997 L18.8320503,13.4452998 L22,18.196 L25.1679497,13.4452998 C25.4743022,12.9857711 26.0951715,12.8615972 26.5547002,13.1679497 Z" id="形状结合"></path>
        </g>
    </g>
</svg>