<?xml version="1.0" encoding="UTF-8"?>
<svg width="44px" height="44px" viewBox="0 0 44 44" version="1.1" xmlns="http://www.w3.org/2000/svg" xmlns:xlink="http://www.w3.org/1999/xlink">
    <title>Icon44/创建新商品@2x</title>
    <g id="Icon44/创建新商品" stroke="none" stroke-width="1" fill="none" fill-rule="evenodd">
        <g id="创建商品" fill="#666666" fill-rule="nonzero">
            <path d="M32,4 C36.418278,4 40,7.581722 40,12 L40,32 C40,36.418278 36.418278,40 32,40 L12,40 C7.581722,40 4,36.418278 4,32 L4,12 C4,7.581722 7.581722,4 12,4 L32,4 Z M32,6 L12,6 C8.76160306,6 6.12242824,8.56557489 6.00413847,11.7750617 L6,12 L6,32 C6,35.2383969 8.56557489,37.8775718 11.7750617,37.9958615 L12,38 L32,38 C35.2383969,38 37.8775718,35.4344251 37.9958615,32.2249383 L38,32 L38,12 C38,8.76160306 35.4344251,6.12242824 32.2249383,6.00413847 L32,6 Z M22,14 C22.5522847,14 23,14.4477153 23,15 L23,20.999 L29,21 C29.5522847,21 30,21.4477153 30,22 C30,22.5522847 29.5522847,23 29,23 L23,22.999 L23,29 C23,29.5522847 22.5522847,30 22,30 C21.4477153,30 21,29.5522847 21,29 L21,22.999 L15,23 C14.4477153,23 14,22.5522847 14,22 C14,21.4477153 14.4477153,21 15,21 L21,20.999 L21,15 C21,14.4477153 21.4477153,14 22,14 Z" id="形状结合"></path>
        </g>
    </g>
</svg>