<svg width="16" height="16" viewBox="0 0 16 16" fill="none" xmlns="http://www.w3.org/2000/svg">
<path d="M3.4 3H4.6C4.82091 3 5 3.17909 5 3.4V4.6C5 4.82091 4.82091 5 4.6 5H3.4C3.17909 5 3 4.82091 3 4.6V3.4C3 3.17909 3.17909 3 3.4 3Z" fill="#0080FF"/>
<path d="M1 2C1 1.44772 1.44772 1 2 1H6C6.55228 1 7 1.44772 7 2V6C7 6.55228 6.55228 7 6 7H2C1.44772 7 1 6.55228 1 6V2ZM2 2L2 6H6V2H2Z" fill="#0080FF"/>
<path d="M3 11.4C3 11.1791 3.17909 11 3.4 11H4.6C4.82091 11 5 11.1791 5 11.4V12.6C5 12.8209 4.82091 13 4.6 13H3.4C3.17909 13 3 12.8209 3 12.6V11.4Z" fill="#0080FF"/>
<path d="M1 10C1 9.44772 1.44772 9 2 9H6C6.55228 9 7 9.44772 7 10V14C7 14.5523 6.55228 15 6 15H2C1.44772 15 1 14.5523 1 14V10ZM2 10L2 14H6V10H2Z" fill="#0080FF"/>
<path d="M11.4 3H12.6C12.8209 3 13 3.17909 13 3.4V4.6C13 4.82091 12.8209 5 12.6 5H11.4C11.1791 5 11 4.82091 11 4.6V3.4C11 3.17909 11.1791 3 11.4 3Z" fill="#0080FF"/>
<path d="M10 1H14C14.5523 1 15 1.44772 15 2V6C15 6.55228 14.5523 7 14 7H10C9.44772 7 9 6.55228 9 6V2C9 1.44772 9.44772 1 10 1ZM14 2H10V6H14V2Z" fill="#0080FF"/>
<path d="M12 11.5C12 11.2239 12.2239 11 12.5 11C12.7761 11 13 11.2239 13 11.5V12.5C13 12.7761 12.7761 13 12.5 13H11.5C11.2239 13 11 12.7761 11 12.5C11 12.2239 11.2239 12 11.5 12H12V11.5Z" fill="#0080FF"/>
<path d="M14.5 11C14.7761 11 15 11.2239 15 11.5V14C15 14.5523 14.5523 15 14 15H11.5C11.2239 15 11 14.7761 11 14.5C11 14.2239 11.2239 14 11.5 14H14V11.5C14 11.2239 14.2239 11 14.5 11Z" fill="#0080FF"/>
<path d="M10 9H14.5C14.7761 9 15 9.22386 15 9.5C15 9.77614 14.7761 10 14.5 10H10V14.5C10 14.7761 9.77614 15 9.5 15C9.22386 15 9 14.7761 9 14.5V10C9 9.44771 9.44772 9 10 9Z" fill="#0080FF"/>
</svg>
